<svg width="103" height="80" viewBox="0 0 103 80" fill="none" xmlns="http://www.w3.org/2000/svg">
<g clip-path="url(#clip0_5_9)">
<path fill-rule="evenodd" clip-rule="evenodd" d="M6.9689 0H95.9564C99.7927 0 102.925 3.13266 102.925 6.9689V73.0311C102.925 76.859 99.7927 80 95.9564 80H6.9689C3.13266 80 0 76.8673 0 73.0311V6.9689C0 3.13266 3.13266 0 6.9689 0ZM10.5539 22.1296H91.6093V58.7582H10.5539V22.1296ZM50.8931 24.7932C42.4835 24.7932 35.6654 31.6113 35.6654 40.0209C35.6654 48.4305 42.4835 55.2487 50.8931 55.2487C59.3027 55.2487 66.1208 48.4305 66.1208 40.0209C66.1208 31.6113 59.3027 24.7932 50.8931 24.7932ZM39.4681 40.0209C39.4681 44.4268 42.0982 48.2295 45.9093 50.0304L40.4565 35.4979C39.8283 36.8799 39.4681 38.4127 39.4681 40.0209ZM60.9528 34.5681C61.003 34.9199 61.0282 35.3052 61.0282 35.7156C61.0282 36.8464 60.8104 38.1112 60.1571 39.7027L56.6642 49.5278C60.0565 47.6013 62.3432 44.0163 62.3432 39.9121C62.3516 37.9772 61.849 36.1512 60.9528 34.5681ZM58.6075 39.4597C58.6075 38.0861 58.1049 37.1312 57.6694 36.3941C57.0914 35.4727 56.547 34.7021 56.547 33.7808C56.547 32.7589 57.3427 31.804 58.4651 31.804C58.5153 31.804 58.5656 31.8124 58.6159 31.8124C56.5805 29.9948 53.875 28.8891 50.9015 28.8891C46.9145 28.8891 43.3965 30.8826 41.3611 33.9064C41.6292 33.9148 41.8804 33.9231 42.0982 33.9231C43.296 33.9231 45.1387 33.7808 45.1387 33.7808C45.7502 33.7473 45.8256 34.6267 45.2141 34.7021C45.2141 34.7021 44.5943 34.7691 43.9074 34.811L48.0704 46.8642L50.5664 39.5603L48.7823 34.811C48.1709 34.7775 47.5845 34.7021 47.5845 34.7021C46.9647 34.6686 47.0401 33.7473 47.6599 33.7808C47.6599 33.7808 49.5446 33.9231 50.6669 33.9231C51.8647 33.9231 53.7075 33.7808 53.7075 33.7808C54.3189 33.7473 54.3943 34.6267 53.7828 34.7021C53.7828 34.7021 53.163 34.7691 52.4762 34.811L56.6056 46.7721L57.7447 43.0698C58.2222 41.5203 58.5991 40.4146 58.6075 39.4597ZM51.0941 40.9926L47.6683 50.6921C48.7153 50.9936 49.8042 51.1444 50.8931 51.1444C52.2249 51.1444 53.4981 50.9182 54.6875 50.5162C54.654 50.4659 54.6288 50.4157 54.6037 50.3654L51.0941 40.9926ZM56.0109 70.979C54.5199 70.979 53.3138 69.6639 53.3138 68.0473C53.3138 66.4224 54.5199 65.1157 56.0109 65.1157H89.2221C90.713 65.1157 91.9192 66.4307 91.9192 68.0473C91.9192 69.6639 90.713 70.979 89.2221 70.979H56.0109ZM12.5306 70.979C11.0564 70.979 9.85865 69.6639 9.85865 68.0473C9.85865 66.4224 11.0564 65.1157 12.5306 65.1157H43.3211C44.7953 65.1157 45.9931 66.4307 45.9931 68.0473C45.9931 69.6639 44.7953 70.979 43.3211 70.979H12.5306ZM98.8127 16.8359H4.43095V73.7096C4.43095 74.7817 5.28531 75.6361 6.35745 75.6361H96.8527C97.9248 75.6361 98.7792 74.7733 98.7792 73.7096V16.8359H98.8127ZM89.3226 6.04753C91.224 6.04753 92.7652 7.58873 92.7652 9.49011C92.7652 11.3915 91.224 12.9327 89.3226 12.9327C87.4212 12.9327 85.88 11.3915 85.88 9.49011C85.88 7.58873 87.4296 6.04753 89.3226 6.04753ZM66.0036 6.04753C67.9049 6.04753 69.4461 7.58873 69.4461 9.49011C69.4461 11.3915 67.9049 12.9327 66.0036 12.9327C64.1022 12.9327 62.561 11.3915 62.561 9.49011C62.561 7.58873 64.1022 6.04753 66.0036 6.04753ZM77.6631 6.04753C79.5644 6.04753 81.1056 7.58873 81.1056 9.49011C81.1056 11.3915 79.5644 12.9327 77.6631 12.9327C75.7617 12.9327 74.2205 11.3915 74.2205 9.49011C74.2205 7.58873 75.7617 6.04753 77.6631 6.04753Z" fill="white"/>
</g>
<defs>
<clipPath id="clip0_5_9">
<rect width="102.925" height="80" fill="white"/>
</clipPath>
</defs>
</svg>
