<svg width="93" height="70" viewBox="0 0 93 70" fill="none" xmlns="http://www.w3.org/2000/svg">
<g clip-path="url(#clip0_5_16)">
<path fill-rule="evenodd" clip-rule="evenodd" d="M27.8957 0H32.2641C33.247 0.00397963 34.1886 0.396222 34.8837 1.09128C35.5787 1.78634 35.971 2.72791 35.9749 3.71086V7.75426C37.9423 8.34226 39.8229 9.18855 41.5677 10.271L44.5908 7.24789C44.9372 6.89873 45.3492 6.6216 45.8032 6.43248C46.2572 6.24335 46.7442 6.14599 47.236 6.14599C47.7278 6.14599 48.2148 6.24335 48.6688 6.43248C49.1228 6.6216 49.5349 6.89873 49.8812 7.24789L52.9043 10.3541C53.5975 11.0509 53.9867 11.9938 53.9867 12.9767C53.9867 13.9595 53.5975 14.9024 52.9043 15.5992L49.6772 18.8339C50.6007 20.5225 51.3091 22.3201 51.7858 24.1848H56.4414C57.4256 24.1868 58.3691 24.5782 59.0658 25.2735C59.7625 25.9687 60.1558 26.9114 60.1598 27.8957V32.2641C60.1558 33.2483 59.7625 34.191 59.0658 34.8863C58.3691 35.5816 57.4256 35.973 56.4414 35.9749H51.7404C51.2503 37.8205 50.5318 39.5977 49.6016 41.2654L52.9043 44.5908C53.2535 44.9372 53.5306 45.3492 53.7198 45.8032C53.9089 46.2572 54.0063 46.7442 54.0063 47.236C54.0063 47.7278 53.9089 48.2148 53.7198 48.6688C53.5306 49.1228 53.2535 49.5349 52.9043 49.8812L49.8057 52.9043C49.4593 53.2535 49.0472 53.5306 48.5932 53.7197C48.1392 53.9089 47.6523 54.0062 47.1604 54.0062C46.6686 54.0062 46.1817 53.9089 45.7277 53.7197C45.2737 53.5306 44.8616 53.2535 44.5152 52.9043L41.409 49.7981C39.6999 50.8518 37.8604 51.6776 35.9372 52.2544V56.4565C35.9352 57.4408 35.5438 58.3843 34.8485 59.0809C34.1533 59.7776 33.2106 60.1709 32.2263 60.1749H27.8957C26.9088 60.1709 25.9638 59.7755 25.2681 59.0756C24.5724 58.3756 24.1828 57.4283 24.1848 56.4414V52.6625C22.0734 52.1931 20.0381 51.4299 18.1386 50.3952L15.5992 52.9043C14.9024 53.5975 13.9595 53.9867 12.9767 53.9867C11.9938 53.9867 11.0509 53.5975 10.3541 52.9043L7.26301 49.8057C6.91385 49.4593 6.63671 49.0472 6.44759 48.5932C6.25847 48.1392 6.1611 47.6523 6.1611 47.1604C6.1611 46.6686 6.25847 46.1817 6.44759 45.7277C6.63671 45.2737 6.91385 44.8616 7.26301 44.5152L9.57569 42.2025C8.37036 40.2712 7.45613 38.1728 6.86245 35.9749H3.71086C2.72791 35.971 1.78634 35.5787 1.09128 34.8837C0.396222 34.1886 0.00397963 33.247 0 32.2641L0 27.8957C0.00397963 26.9127 0.396222 25.9712 1.09128 25.2761C1.78634 24.5811 2.72791 24.1888 3.71086 24.1848H6.80199C7.38185 21.9514 8.29121 19.8169 9.50011 17.8514L7.23278 15.5841C6.53958 14.8873 6.15044 13.9444 6.15044 12.9616C6.15044 11.9787 6.53958 11.0358 7.23278 10.339L10.3541 7.26301C11.0509 6.56981 11.9938 6.18067 12.9767 6.18067C13.9595 6.18067 14.9024 6.56981 15.5992 7.26301L18.0328 9.69661C19.9606 8.62318 22.0324 7.83165 24.1848 7.34615V3.71086C24.1888 2.72791 24.5811 1.78634 25.2761 1.09128C25.9712 0.396222 26.9127 0.00397963 27.8957 0V0ZM71.1941 35.9145L73.6655 35.4535C74.2227 35.352 74.7973 35.4756 75.2634 35.7972C75.7296 36.1188 76.0491 36.6122 76.152 37.1691L76.5753 39.4364C77.7484 39.5644 78.8995 39.8465 79.9989 40.2753L81.382 38.2574C81.7045 37.7926 82.1974 37.4738 82.7536 37.3705C83.3098 37.2672 83.8843 37.3876 84.3522 37.7057L86.423 39.1341C86.8878 39.4566 87.2066 39.9495 87.3099 40.5057C87.4132 41.0619 87.2928 41.6364 86.9747 42.1043L85.4632 44.2734C86.1682 45.1285 86.76 46.0709 87.2241 47.0773L89.8618 46.586C90.4196 46.4865 90.9942 46.6107 91.461 46.9319C91.9279 47.253 92.2494 47.7451 92.3559 48.3017L92.8093 50.773C92.8607 51.0485 92.8572 51.3314 92.7992 51.6055C92.7411 51.8796 92.6295 52.1395 92.4709 52.3705C92.3122 52.6014 92.1096 52.7988 91.8746 52.9514C91.6396 53.1039 91.3768 53.2087 91.1013 53.2596L88.4334 53.7584C88.3513 54.8544 88.1329 55.9359 87.7834 56.978L89.9827 58.4895C90.4497 58.8121 90.7699 59.3065 90.8733 59.8645C90.9767 60.4226 90.8548 60.9988 90.5344 61.4673L89.1136 63.5381C88.7912 64.0033 88.2976 64.3219 87.7409 64.4239C87.1842 64.5259 86.6097 64.403 86.1434 64.0823L84.0574 62.6539C83.199 63.4288 82.2438 64.0893 81.2157 64.6189L81.6541 66.9996C81.7102 67.2765 81.7112 67.5618 81.6568 67.8391C81.6024 68.1164 81.4938 68.3803 81.3372 68.6155C81.1806 68.8508 80.9791 69.0528 80.7443 69.2099C80.5094 69.3671 80.2459 69.4764 79.9687 69.5314L77.4973 69.9924C76.9395 70.092 76.3649 69.9678 75.8981 69.6466C75.4312 69.3255 75.1097 68.8334 75.0032 68.2768L74.6102 66.1229C73.3635 66.0781 72.1293 65.8567 70.9447 65.4653L69.7733 67.1658C69.4508 67.6307 68.9579 67.9494 68.4017 68.0527C67.8455 68.156 67.2709 68.0356 66.8031 67.7176L64.7322 66.2891C64.2674 65.9667 63.9487 65.4737 63.8454 64.9175C63.7421 64.3613 63.8625 63.7868 64.1805 63.3189L65.2462 61.8074C64.3593 60.8325 63.6208 59.7324 63.0544 58.5424L61.2708 58.8674C60.9953 58.9188 60.7125 58.9153 60.4384 58.8572C60.1643 58.7992 59.9043 58.6876 59.6734 58.529C59.4424 58.3703 59.245 58.1677 59.0925 57.9327C58.9399 57.6977 58.8352 57.4349 58.7843 57.1594L58.3233 54.688C58.2652 54.4083 58.2639 54.1198 58.3192 53.8395C58.3745 53.5593 58.4853 53.293 58.6452 53.0563C58.8052 52.8196 59.0109 52.6173 59.2502 52.4614C59.4896 52.3055 59.7577 52.1991 60.0389 52.1486L61.7923 51.816C61.8884 50.4926 62.1813 49.191 62.6614 47.954L61.1499 46.9186C60.6845 46.5947 60.3656 46.1005 60.2623 45.543C60.1591 44.9856 60.2797 44.4099 60.5981 43.9408L62.0266 41.87C62.3477 41.4035 62.8408 41.0835 63.3976 40.9801C63.9544 40.8767 64.5295 40.9983 64.9968 41.3183L66.6217 42.4368C67.6017 41.6265 68.6938 40.9621 69.864 40.4643L69.4785 38.401C69.3791 37.8441 69.5036 37.2705 69.8248 36.8048C70.1461 36.3392 70.6382 36.0192 71.1941 35.9145ZM74.4062 46.3593C75.6617 46.1278 76.9577 46.2734 78.1305 46.7777C79.3034 47.282 80.3006 48.1224 80.9963 49.1929C81.692 50.2634 82.0549 51.516 82.0394 52.7926C82.0239 54.0692 81.6306 55.3126 80.9091 56.3658C80.1876 57.4191 79.1703 58.2351 77.9855 58.7107C76.8007 59.1864 75.5016 59.3004 74.2521 59.0384C73.0026 58.7765 71.8586 58.1502 70.9647 57.2388C70.0707 56.3273 69.4668 55.1714 69.2291 53.9171C69.0706 53.0807 69.079 52.2213 69.2536 51.3881C69.4283 50.555 69.7659 49.7646 70.2469 49.0623C70.728 48.36 71.3431 47.7597 72.0569 47.2958C72.7706 46.8319 73.569 46.5137 74.4062 46.3593ZM30.0799 18.8944C32.3029 18.8869 34.478 19.5398 36.3294 20.7701C38.1808 22.0005 39.6252 23.7529 40.4793 25.8052C41.3335 27.8576 41.5589 30.1173 41.1271 32.2979C40.6952 34.4785 39.6256 36.4818 38.0537 38.0537C36.4818 39.6255 34.4785 40.6952 32.2979 41.1271C30.1173 41.5589 27.8576 41.3335 25.8052 40.4793C23.7529 39.6252 22.0005 38.1808 20.7701 36.3294C19.5398 34.478 18.8869 32.3028 18.8944 30.0799C18.9024 27.1158 20.0834 24.2753 22.1794 22.1794C24.2753 20.0834 27.1158 18.9024 30.0799 18.8944Z" fill="white"/>
</g>
<defs>
<clipPath id="clip0_5_16">
<rect width="92.8698" height="70" fill="white"/>
</clipPath>
</defs>
</svg>
