<svg width="108" height="80" viewBox="0 0 108 80" fill="none" xmlns="http://www.w3.org/2000/svg">
<g clip-path="url(#clip0_5_7)">
<path fill-rule="evenodd" clip-rule="evenodd" d="M7.29224 0H100.429C104.439 0 107.721 3.28214 107.721 7.29224V72.7078C107.721 76.7179 104.439 80 100.429 80H7.29224C3.28214 80 0 76.7179 0 72.7078V7.29224C0 3.28214 3.28214 0 7.29224 0ZM43.8839 55.6196C45.0957 56.68 45.2178 58.5251 44.1574 59.737C43.0949 60.9489 41.2518 61.073 40.04 60.0105L28.9459 50.2924C27.7341 49.23 27.6099 47.3869 28.6724 46.1729C28.7629 46.0699 28.8597 45.9752 28.9607 45.8868L40.04 36.1793C41.2518 35.1189 43.0949 35.2409 44.1574 36.4549C45.2178 37.6667 45.0957 39.5098 43.8839 40.5723L35.2956 48.0959L43.8839 55.6196ZM67.6815 60.0105C66.4696 61.073 64.6266 60.9489 63.5641 59.737C62.5037 58.5251 62.6257 56.68 63.8376 55.6196L72.4258 48.0959L63.8376 40.5723C62.6257 39.5098 62.5037 37.6667 63.5641 36.4549C64.6266 35.2409 66.4696 35.1189 67.6815 36.1793L78.7608 45.8868C78.8618 45.9752 78.9586 46.0699 79.049 46.1729C80.1115 47.3869 79.9874 49.23 78.7755 50.2924L67.6815 60.0105ZM53.806 33.8565C54.1721 32.2849 55.7458 31.3065 57.3175 31.6726C58.8891 32.0387 59.8675 33.6125 59.5014 35.1841L53.1622 62.3333C52.7961 63.907 51.2224 64.8853 49.6508 64.5193C48.0791 64.1532 47.1008 62.5794 47.4669 61.0078L53.806 33.8565ZM4.63497 20.4187V73.4189C4.63413 73.6841 4.68575 73.9468 4.78686 74.192C4.88796 74.4372 5.03655 74.6599 5.22407 74.8475C5.4116 75.035 5.63435 75.1836 5.87953 75.2847C6.1247 75.3858 6.38744 75.4374 6.65264 75.4366H101.368C101.633 75.4374 101.896 75.3858 102.141 75.2847C102.386 75.1836 102.609 75.035 102.796 74.8475C102.984 74.6599 103.132 74.4372 103.233 74.192C103.334 73.9468 103.386 73.6841 103.385 73.4189V20.4187H4.63497ZM93.4883 8.19693C95.4787 8.19693 97.0903 9.81065 97.0903 11.7989C97.0903 13.7892 95.4787 15.4008 93.4883 15.4008C91.5001 15.4008 89.8864 13.7892 89.8864 11.7989C89.8864 9.81065 91.5001 8.19693 93.4883 8.19693ZM69.0764 8.19693C71.0667 8.19693 72.6783 9.81065 72.6783 11.7989C72.6783 13.7892 71.0667 15.4008 69.0764 15.4008C67.0882 15.4008 65.4765 13.7892 65.4765 11.7989C65.4765 9.81065 67.0882 8.19693 69.0764 8.19693ZM81.2834 8.19693C83.2716 8.19693 84.8853 9.81065 84.8853 11.7989C84.8853 13.7892 83.2716 15.4008 81.2834 15.4008C79.2952 15.4008 77.6815 13.7892 77.6815 11.7989C77.6815 9.81065 79.2952 8.19693 81.2834 8.19693Z" fill="white"/>
</g>
<defs>
<clipPath id="clip0_5_7">
<rect width="107.721" height="80" fill="white"/>
</clipPath>
</defs>
</svg>
